STARTFONT 2.1
FONT resources/fonts/4x5_text
SIZE 5 5 75 75
FONTBOUNDINGBOX 5 5 0 0
STARTPROPERTIES 2
FONT_ASCENT 5
FONT_DESCENT 0
ENDPROPERTIES
CHARS 40

STARTCHAR A
ENCODING 65
SWIDTH 500 0
DWIDTH 5 0
BBX 4 5 0 0
BITMAP
60
90
f0
90
90
ENDCHAR

STARTCHAR B
ENCODING 66
SWIDTH 500 0
DWIDTH 5 0
BBX 4 5 0 0
BITMAP
e0
90
f0
90
e0
ENDCHAR

STARTCHAR C
ENCODING 67
SWIDTH 500 0
DWIDTH 5 0
BBX 4 5 0 0
BITMAP
70
80
80
80
70
ENDCHAR

STARTCHAR D
ENCODING 68
SWIDTH 500 0
DWIDTH 5 0
BBX 4 5 0 0
BITMAP
e0
90
90
90
e0
ENDCHAR

STARTCHAR E
ENCODING 69
SWIDTH 500 0
DWIDTH 5 0
BBX 4 5 0 0
BITMAP
f0
80
e0
80
f0
ENDCHAR

STARTCHAR F
ENCODING 70
SWIDTH 500 0
DWIDTH 5 0
BBX 4 5 0 0
BITMAP
f0
80
e0
80
80
ENDCHAR

STARTCHAR G
ENCODING 71
SWIDTH 500 0
DWIDTH 5 0
BBX 4 5 0 0
BITMAP
70
80
b0
90
60
ENDCHAR

STARTCHAR H
ENCODING 72
SWIDTH 500 0
DWIDTH 5 0
BBX 4 5 0 0
BITMAP
90
90
f0
90
90
ENDCHAR

STARTCHAR I
ENCODING 73
SWIDTH 500 0
DWIDTH 4 0
BBX 3 5 0 0
BITMAP
e0
40
40
40
e0
ENDCHAR

STARTCHAR J
ENCODING 74
SWIDTH 500 0
DWIDTH 5 0
BBX 4 5 0 0
BITMAP
f0
20
20
a0
40
ENDCHAR

STARTCHAR K
ENCODING 75
SWIDTH 500 0
DWIDTH 5 0
BBX 4 5 0 0
BITMAP
90
a0
c0
a0
90
ENDCHAR

STARTCHAR L
ENCODING 76
SWIDTH 500 0
DWIDTH 5 0
BBX 4 5 0 0
BITMAP
80
80
80
80
f0
ENDCHAR

STARTCHAR M
ENCODING 77
SWIDTH 500 0
DWIDTH 6 0
BBX 5 5 0 0
BITMAP
88
d8
a8
88
88
ENDCHAR

STARTCHAR N
ENCODING 78
SWIDTH 500 0
DWIDTH 5 0
BBX 4 5 0 0
BITMAP
90
d0
b0
90
90
ENDCHAR

STARTCHAR O
ENCODING 79
SWIDTH 500 0
DWIDTH 5 0
BBX 4 5 0 0
BITMAP
60
90
90
90
60
ENDCHAR

STARTCHAR P
ENCODING 80
SWIDTH 500 0
DWIDTH 5 0
BBX 4 5 0 0
BITMAP
e0
90
e0
80
80
ENDCHAR

STARTCHAR Q
ENCODING 81
SWIDTH 500 0
DWIDTH 5 0
BBX 4 5 0 0
BITMAP
60
90
90
b0
70
ENDCHAR

STARTCHAR R
ENCODING 82
SWIDTH 500 0
DWIDTH 5 0
BBX 4 5 0 0
BITMAP
e0
90
e0
90
90
ENDCHAR

STARTCHAR S
ENCODING 83
SWIDTH 500 0
DWIDTH 5 0
BBX 4 5 0 0
BITMAP
70
80
60
10
e0
ENDCHAR

STARTCHAR T
ENCODING 84
SWIDTH 500 0
DWIDTH 4 0
BBX 3 5 0 0
BITMAP
e0
40
40
40
40
ENDCHAR

STARTCHAR U
ENCODING 85
SWIDTH 500 0
DWIDTH 5 0
BBX 4 5 0 0
BITMAP
90
90
90
90
60
ENDCHAR

STARTCHAR V
ENCODING 86
SWIDTH 500 0
DWIDTH 6 0
BBX 5 5 0 0
BITMAP
88
88
88
50
20
ENDCHAR

STARTCHAR W
ENCODING 87
SWIDTH 500 0
DWIDTH 6 0
BBX 5 5 0 0
BITMAP
88
88
88
a8
50
ENDCHAR

STARTCHAR X
ENCODING 88
SWIDTH 500 0
DWIDTH 6 0
BBX 5 5 0 0
BITMAP
88
50
20
50
88
ENDCHAR

STARTCHAR Y
ENCODING 89
SWIDTH 500 0
DWIDTH 6 0
BBX 5 5 0 0
BITMAP
88
50
20
20
20
ENDCHAR

STARTCHAR Z
ENCODING 90
SWIDTH 500 0
DWIDTH 5 0
BBX 4 5 0 0
BITMAP
f0
20
40
80
f0
ENDCHAR

STARTCHAR 0
ENCODING 48
SWIDTH 500 0
DWIDTH 4 0
BBX 3 5 0 0
BITMAP
e0
a0
a0
a0
e0
ENDCHAR

STARTCHAR 1
ENCODING 49
SWIDTH 500 0
DWIDTH 2 0
BBX 1 5 0 0
BITMAP
80
80
80
80
80
ENDCHAR

STARTCHAR 2
ENCODING 50
SWIDTH 500 0
DWIDTH 4 0
BBX 3 5 0 0
BITMAP
e0
20
e0
80
e0
ENDCHAR

STARTCHAR 3
ENCODING 51
SWIDTH 500 0
DWIDTH 4 0
BBX 3 5 0 0
BITMAP
e0
20
e0
20
e0
ENDCHAR

STARTCHAR 4
ENCODING 52
SWIDTH 500 0
DWIDTH 4 0
BBX 3 5 0 0
BITMAP
a0
a0
e0
20
20
ENDCHAR

STARTCHAR 5
ENCODING 53
SWIDTH 500 0
DWIDTH 4 0
BBX 3 5 0 0
BITMAP
e0
80
e0
20
e0
ENDCHAR

STARTCHAR 6
ENCODING 54
SWIDTH 500 0
DWIDTH 4 0
BBX 3 5 0 0
BITMAP
e0
80
e0
a0
e0
ENDCHAR

STARTCHAR 7
ENCODING 55
SWIDTH 500 0
DWIDTH 4 0
BBX 3 5 0 0
BITMAP
e0
20
20
20
20
ENDCHAR

STARTCHAR 8
ENCODING 56
SWIDTH 500 0
DWIDTH 4 0
BBX 3 5 0 0
BITMAP
e0
a0
e0
a0
e0
ENDCHAR

STARTCHAR 9
ENCODING 57
SWIDTH 500 0
DWIDTH 4 0
BBX 3 5 0 0
BITMAP
e0
a0
e0
20
20
ENDCHAR

STARTCHAR ?
ENCODING 63
SWIDTH 500 0
DWIDTH 4 0
BBX 3 5 0 0
BITMAP
c0
20
40
0
40
ENDCHAR

STARTCHAR :
ENCODING 58
SWIDTH 500 0
DWIDTH 2 0
BBX 1 5 0 0
BITMAP
0
80
0
80
0
ENDCHAR

STARTCHAR -
ENCODING 45
SWIDTH 500 0
DWIDTH 4 0
BBX 3 5 0 0
BITMAP
0
0
20
0
0
ENDCHAR

STARTCHAR  
ENCODING 32
SWIDTH 500 0
DWIDTH 2 0
BBX 1 5 0 0
BITMAP
0
0
0
0
0
ENDCHAR
ENDFONT
